<svg xmlns="http://www.w3.org/2000/svg" viewBox="0 0 512 512" role="img" aria-labelledby="title desc">
  <title id="title">LinkedIn Buddy logo mark</title>
  <desc id="desc">A rounded speech bubble mascot with a smile and a coral spark.</desc>
  <defs>
    <filter id="shadow" x="-20%" y="-20%" width="140%" height="140%">
      <feDropShadow dx="0" dy="18" stdDeviation="18" flood-color="#0f172a" flood-opacity=".12"/>
    </filter>
  </defs>
  <g filter="url(#shadow)">
    <rect x="72" y="86" width="284" height="284" rx="102" fill="#fff7ed"/>
    <path
      d="M156 138H322C360.66 138 392 169.34 392 208V264C392 302.66 360.66 334 322 334H250L193 386C184.2 394 170 387.76 170 375.88V334H156C117.34 334 86 302.66 86 264V208C86 169.34 117.34 138 156 138Z"
      fill="#14b8a6"
      stroke="#0f172a"
      stroke-linecap="round"
      stroke-linejoin="round"
      stroke-width="16"
    />
    <path
      d="M151 176C171 152 205 140 254 140"
      fill="none"
      opacity=".55"
      stroke="#ffffff"
      stroke-linecap="round"
      stroke-width="12"
    />
    <circle cx="203" cy="228" r="12" fill="#0f172a"/>
    <circle cx="281" cy="228" r="12" fill="#0f172a"/>
    <path
      d="M193 278C210 300 274 300 291 278"
      fill="none"
      stroke="#0f172a"
      stroke-linecap="round"
      stroke-width="14"
    />
    <circle cx="174" cy="261" r="10" fill="#ff7a59" opacity=".55"/>
    <circle cx="310" cy="261" r="10" fill="#ff7a59" opacity=".55"/>
    <path
      d="M396 87L410 113L438 127L410 141L396 169L382 141L354 127L382 113Z"
      fill="#ff7a59"
      stroke="#0f172a"
      stroke-linejoin="round"
      stroke-width="12"
    />
  </g>
</svg>
