<svg xmlns="http://www.w3.org/2000/svg" viewBox="0 0 960 280" role="img" aria-labelledby="title desc">
  <title id="title">LinkedIn Buddy wordmark</title>
  <desc id="desc">LinkedIn Buddy wordmark with the Beacon Buddy mascot.</desc>
  <defs>
    <filter id="wordmark-shadow" x="-20%" y="-20%" width="140%" height="140%">
      <feDropShadow dx="0" dy="16" stdDeviation="18" flood-color="#0f172a" flood-opacity=".1"/>
    </filter>
  </defs>
  <g filter="url(#wordmark-shadow)">
    <rect x="24" y="24" width="912" height="232" rx="64" fill="#fff7ed" stroke="#0f172a" stroke-width="6"/>
  </g>
  <g transform="translate(64 48)">
    <rect x="0" y="12" width="176" height="176" rx="62" fill="#ffffff"/>
    <path
      d="M57 43H136C159.75 43 179 62.25 179 86V119C179 142.75 159.75 162 136 162H92L55 196C49.57 200.98 41 197.12 41 189.72V162H57C33.25 162 14 142.75 14 119V86C14 62.25 33.25 43 57 43Z"
      fill="#14b8a6"
      stroke="#0f172a"
      stroke-linecap="round"
      stroke-linejoin="round"
      stroke-width="8"
    />
    <circle cx="80" cy="99" r="7" fill="#0f172a"/>
    <circle cx="117" cy="99" r="7" fill="#0f172a"/>
    <path
      d="M77 125C84 134 113 134 120 125"
      fill="none"
      stroke="#0f172a"
      stroke-linecap="round"
      stroke-width="7"
    />
    <path
      d="M165 18L173 33L190 41L173 49L165 66L157 49L140 41L157 33Z"
      fill="#ff7a59"
      stroke="#0f172a"
      stroke-linejoin="round"
      stroke-width="5"
    />
  </g>
  <g transform="translate(290 76)">
    <text
      x="0"
      y="72"
      fill="#0f172a"
      font-family="'Avenir Next', 'Trebuchet MS', 'Segoe UI', sans-serif"
      font-size="78"
      font-weight="700"
      letter-spacing="-2"
    >
      LinkedIn Buddy
    </text>
    <text
      x="0"
      y="128"
      fill="#334155"
      font-family="'Avenir Next', 'Trebuchet MS', 'Segoe UI', sans-serif"
      font-size="28"
      font-weight="500"
      letter-spacing=".4"
    >
      Friendly CLI + MCP automation
    </text>
    <g transform="translate(0 158)">
      <rect width="84" height="34" rx="17" fill="#0f172a"/>
      <text
        x="42"
        y="23"
        fill="#fff7ed"
        font-family="'Avenir Next', 'Trebuchet MS', 'Segoe UI', sans-serif"
        font-size="18"
        font-weight="700"
        text-anchor="middle"
      >
        CLI
      </text>
      <rect x="98" width="98" height="34" rx="17" fill="#14b8a6"/>
      <text
        x="147"
        y="23"
        fill="#0f172a"
        font-family="'Avenir Next', 'Trebuchet MS', 'Segoe UI', sans-serif"
        font-size="18"
        font-weight="700"
        text-anchor="middle"
      >
        MCP
      </text>
      <rect x="210" width="138" height="34" rx="17" fill="#ff7a59"/>
      <text
        x="279"
        y="23"
        fill="#0f172a"
        font-family="'Avenir Next', 'Trebuchet MS', 'Segoe UI', sans-serif"
        font-size="18"
        font-weight="700"
        text-anchor="middle"
      >
        Playwright
      </text>
    </g>
  </g>
</svg>
